<svg width="1100" height="1100" viewBox="0 0 1100 1100" fill="none" xmlns="http://www.w3.org/2000/svg">
<rect y="600" width="500" height="100" fill="#777777"/>
<rect x="100" y="1000" width="400" height="100" fill="#777777"/>
<rect x="700" y="400" width="400" height="100" fill="#777777"/>
<rect y="700" width="100" height="400" fill="#777777"/>
<rect x="600" width="100" height="500" fill="#777777"/>
<rect x="400" y="800" width="100" height="200" fill="#777777"/>
<rect x="400" y="800" width="100" height="200" transform="rotate(90 400 800)" fill="#777777"/>
<path d="M645 790C669.853 790 690 769.853 690 745C690 720.147 669.853 700 645 700C620.147 700 600 720.147 600 745C600 769.853 620.147 790 645 790Z" fill="#777777"/>
<path d="M646 883C665.33 883 681 867.33 681 848C681 828.67 665.33 813 646 813C626.67 813 611 828.67 611 848C611 867.33 626.67 883 646 883Z" fill="#777777"/>
<path d="M752 883C771.33 883 787 867.33 787 848C787 828.67 771.33 813 752 813C732.67 813 717 828.67 717 848C717 867.33 732.67 883 752 883Z" fill="#777777"/>
<path d="M951 883C970.33 883 986 867.33 986 848C986 828.67 970.33 813 951 813C931.67 813 916 828.67 916 848C916 867.33 931.67 883 951 883Z" fill="#777777"/>
<path d="M849 994C873.853 994 894 973.853 894 949C894 924.147 873.853 904 849 904C824.147 904 804 924.147 804 949C804 973.853 824.147 994 849 994Z" fill="#777777"/>
<path d="M646 986C665.33 986 681 970.33 681 951C681 931.67 665.33 916 646 916C626.67 916 611 931.67 611 951C611 970.33 626.67 986 646 986Z" fill="#777777"/>
<path d="M644.505 1100C669.085 1100 689.011 1079.85 689.011 1055C689.011 1030.15 669.085 1010 644.505 1010C619.926 1010 600 1030.15 600 1055C600 1079.85 619.926 1100 644.505 1100Z" fill="#777777"/>
<path d="M1055 790C1079.85 790 1100 769.853 1100 745C1100 720.147 1079.85 700 1055 700C1030.15 700 1010 720.147 1010 745C1010 769.853 1030.15 790 1055 790Z" fill="#777777"/>
<path d="M1053 883C1072.33 883 1088 867.33 1088 848C1088 828.67 1072.33 813 1053 813C1033.67 813 1018 828.67 1018 848C1018 867.33 1033.67 883 1053 883Z" fill="#777777"/>
<path d="M1053 986C1072.33 986 1088 970.33 1088 951C1088 931.67 1072.33 916 1053 916C1033.67 916 1018 931.67 1018 951C1018 970.33 1033.67 986 1053 986Z" fill="#777777"/>
<path d="M1055 1100C1079.85 1100 1100 1079.85 1100 1055C1100 1030.15 1079.85 1010 1055 1010C1030.15 1010 1010 1030.15 1010 1055C1010 1079.85 1030.15 1100 1055 1100Z" fill="#777777"/>
<path d="M45 190C69.8528 190 90 169.853 90 145C90 120.147 69.8528 100 45 100C20.1472 100 0 120.147 0 145C0 169.853 20.1472 190 45 190Z" fill="#777777"/>
<path d="M46 283C65.33 283 81 267.33 81 248C81 228.67 65.33 213 46 213C26.67 213 11 228.67 11 248C11 267.33 26.67 283 46 283Z" fill="#777777"/>
<path d="M152 283C171.33 283 187 267.33 187 248C187 228.67 171.33 213 152 213C132.67 213 117 228.67 117 248C117 267.33 132.67 283 152 283Z" fill="#777777"/>
<path d="M351 283C370.33 283 386 267.33 386 248C386 228.67 370.33 213 351 213C331.67 213 316 228.67 316 248C316 267.33 331.67 283 351 283Z" fill="#777777"/>
<path d="M249 394C273.853 394 294 373.853 294 349C294 324.147 273.853 304 249 304C224.147 304 204 324.147 204 349C204 373.853 224.147 394 249 394Z" fill="#777777"/>
<path d="M46 386C65.33 386 81 370.33 81 351C81 331.67 65.33 316 46 316C26.67 316 11 331.67 11 351C11 370.33 26.67 386 46 386Z" fill="#777777"/>
<path d="M44.5055 500C69.0852 500 89.011 479.853 89.011 455C89.011 430.147 69.0852 410 44.5055 410C19.9258 410 0 430.147 0 455C0 479.853 19.9258 500 44.5055 500Z" fill="#777777"/>
<path d="M455 190C479.853 190 500 169.853 500 145C500 120.147 479.853 100 455 100C430.147 100 410 120.147 410 145C410 169.853 430.147 190 455 190Z" fill="#777777"/>
<path d="M453 283C472.33 283 488 267.33 488 248C488 228.67 472.33 213 453 213C433.67 213 418 228.67 418 248C418 267.33 433.67 283 453 283Z" fill="#777777"/>
<path d="M453 386C472.33 386 488 370.33 488 351C488 331.67 472.33 316 453 316C433.67 316 418 331.67 418 351C418 370.33 433.67 386 453 386Z" fill="#777777"/>
<path d="M455 500C479.853 500 500 479.853 500 455C500 430.147 479.853 410 455 410C430.147 410 410 430.147 410 455C410 479.853 430.147 500 455 500Z" fill="#777777"/>
</svg>
